<svg
  xmlns="http://www.w3.org/2000/svg"
  width="32"
  height="32"
  viewBox="0 0 32 32"
  fill="none"
>
  <rect width="32" height="32" rx="10" fill="#00A63E" />
  <path
    d="M10 17.25C9.85808 17.2506 9.71892 17.2041 9.59872 17.1161C9.47851 17.0281 9.38218 16.9021 9.32091 16.7527C9.25965 16.6033 9.23596 16.4368 9.25262 16.2723C9.26928 16.1079 9.32558 15.9523 9.41499 15.8237L16.84 6.89875C16.8957 6.82374 16.9716 6.77306 17.0553 6.75501C17.1389 6.73697 17.2253 6.75263 17.3003 6.79944C17.3753 6.84624 17.4344 6.92141 17.468 7.01259C17.5017 7.10378 17.5076 7.20556 17.485 7.30125L16.045 12.5687C16.0025 12.7013 15.9884 12.844 16.0035 12.9844C16.0186 13.1248 16.0628 13.2588 16.1321 13.375C16.2014 13.4911 16.2938 13.5859 16.4015 13.6513C16.5091 13.7166 16.6287 13.7505 16.75 13.75H22C22.1419 13.7494 22.2811 13.7959 22.4013 13.8839C22.5215 13.9719 22.6178 14.0979 22.6791 14.2473C22.7404 14.3967 22.764 14.5632 22.7474 14.7277C22.7307 14.8921 22.6744 15.0477 22.585 15.1763L15.16 24.1012C15.1043 24.1763 15.0284 24.2269 14.9447 24.245C14.8611 24.263 14.7747 24.2474 14.6997 24.2006C14.6247 24.1538 14.5656 24.0786 14.532 23.9874C14.4983 23.8962 14.4924 23.7944 14.515 23.6987L15.955 18.4312C15.9975 18.2987 16.0116 18.156 15.9965 18.0156C15.9814 17.8752 15.9372 17.7412 15.8679 17.625C15.7986 17.5088 15.7062 17.414 15.5985 17.3487C15.4909 17.2834 15.3713 17.2495 15.25 17.25H10Z"
    fill="white"
    stroke="white"
    stroke-width="1.33333"
    stroke-linecap="round"
    stroke-linejoin="round"
  />
</svg>
